<svg width="15" height="15" viewBox="0 0 15 15" fill="none" xmlns="http://www.w3.org/2000/svg">
<g>
<path d="M4.44043 8.60254C5.49773 8.60277 6.34473 9.45858 6.34473 10.5234V13.0801C6.34456 14.1373 5.49763 14.9998 4.44043 15H1.90527C0.855374 15 0.000163509 14.1374 0 13.0801V10.5234C0 9.45844 0.855273 8.60254 1.90527 8.60254H4.44043ZM13.0947 8.60254C14.1447 8.60254 15 9.45844 15 10.5234V13.0801C14.9998 14.1374 14.1446 15 13.0947 15H10.5605C9.50315 15 8.65544 14.1374 8.65527 13.0801V10.5234C8.65527 9.45844 9.50305 8.60254 10.5605 8.60254H13.0947ZM4.44043 0C5.49773 0.000233568 6.34473 0.862792 6.34473 1.9209V4.47754C6.34471 5.54238 5.49772 6.39723 4.44043 6.39746H1.90527C0.855286 6.39746 2.09906e-05 5.54252 0 4.47754V1.9209C0 0.862648 0.855273 0 1.90527 0H4.44043ZM13.0947 0C14.1447 0 15 0.862648 15 1.9209V4.47754C15 5.54252 14.1447 6.39746 13.0947 6.39746H10.5605C9.50306 6.39746 8.65529 5.54252 8.65527 4.47754V1.9209C8.65527 0.862648 9.50305 0 10.5605 0H13.0947Z" fill="#FF6600"/>
</g>
</svg>
