<svg width="20.6327" height="22.6885" viewBox="0 0 20.6327 22.6885" fill="none" xmlns="http://www.w3.org/2000/svg">
<g id="Setting">
<g id="Vector">
<path d="M8.06641 11.3443C8.06641 10.1016 9.07377 9.09425 10.3164 9.09425C11.559 9.09425 12.5664 10.1016 12.5664 11.3443C12.5664 12.5869 11.559 13.5943 10.3164 13.5943C9.07377 13.5943 8.06641 12.5869 8.06641 11.3443Z" fill="#FF6600"/>
<path d="M6.90164 2.57654C7.88205 -0.858845 12.7507 -0.858846 13.7311 2.57654C14.0348 3.64094 15.1284 4.2723 16.2021 4.00317C19.6674 3.13454 22.1017 7.35087 19.6168 9.91763C18.8469 10.7129 18.8469 11.9756 19.6168 12.7709C22.1017 15.3376 19.6674 19.554 16.2021 18.6853C15.1284 18.4162 14.0348 19.0476 13.7311 20.112C12.7507 23.5474 7.88205 23.5474 6.90164 20.112C6.59787 19.0476 5.50433 18.4162 4.43064 18.6853C0.965308 19.554 -1.46899 15.3376 1.01593 12.7709C1.78584 11.9756 1.78584 10.7129 1.01593 9.91763C-1.46899 7.35087 0.965307 3.13454 4.43064 4.00317C5.50433 4.2723 6.59787 3.64094 6.90164 2.57654ZM10.3164 7.59425C8.24534 7.59425 6.56641 9.27319 6.56641 11.3443C6.56641 13.4153 8.24534 15.0943 10.3164 15.0943C12.3875 15.0943 14.0664 13.4153 14.0664 11.3443C14.0664 9.27319 12.3875 7.59425 10.3164 7.59425Z" fill-rule="evenodd" clip-rule="evenodd" fill="#FF6600"/>
</g>
</g>
</svg>
